<svg width="560" height="560" viewBox="232 234 560 560" fill="none" xmlns="http://www.w3.org/2000/svg">
  <g transform="translate(512 512) scale(1.16) translate(-512 -512)">
    <path fill="#FFFFFF" d="M512,300 C470,296 430,298 400,326 C372,352 372,392 374,430 C377,486 396,520 410,566 C422,606 428,668 446,706 C456,728 478,728 488,704 C496,684 500,652 512,640 C524,652 528,684 536,704 C546,728 568,728 578,706 C596,668 602,606 614,566 C628,520 647,486 650,430 C652,392 652,352 624,326 C594,298 554,296 512,300 Z"/>
    <g fill="#0E7490">
      <rect x="492" y="380" width="40" height="120" rx="12"/>
      <rect x="452" y="420" width="120" height="40" rx="12"/>
    </g>
  </g>
</svg>
